<svg data-name="Group 98" xmlns="http://www.w3.org/2000/svg" width="259.747" height="75.902"><g data-name="Group 95"><g data-name="Group 94"><path data-name="Path 10567" d="M50.611 75.902a12.667 12.667 0 0 1-12.66-12.66h12.66z"/><path data-name="Path 10568" d="M50.611 0H0v63.242h37.951V50.611H12.66V12.66h37.951v50.582h12.63V0z"/></g></g><g data-name="Group 97"><g data-name="Group 96"><path data-name="Path 10569" d="M104.152 22.753a4.759 4.759 0 0 0-.393-.388 5.889 5.889 0 0 0-1.553-1.075 9.809 9.809 0 0 0-2.3-.806 13.97 13.97 0 0 0-3.135-.3 9.623 9.623 0 0 0-4.27.866 7.232 7.232 0 0 0-2.777 2.389 9.392 9.392 0 0 0-1.493 3.434 19.764 19.764 0 0 0-.03 7.943 8.819 8.819 0 0 0 1.433 3.374 7.562 7.562 0 0 0 2.747 2.359 9.669 9.669 0 0 0 4.3.866 13.7 13.7 0 0 0 2.657-.239 8.278 8.278 0 0 0 2-.657 5.213 5.213 0 0 0 1.433-.955l.09-.09v5.912a4.932 4.932 0 0 0 4.927 4.927h.03V20.454h-3.009zm-1.193 8.092a17.877 17.877 0 0 1-.179 2.628 4.86 4.86 0 0 1-.717 1.941 3.421 3.421 0 0 1-1.493 1.224 6.5 6.5 0 0 1-2.628.448 6.344 6.344 0 0 1-2.6-.448 3.564 3.564 0 0 1-1.493-1.224 4.479 4.479 0 0 1-.746-1.941 14.324 14.324 0 0 1-.209-2.657 14.881 14.881 0 0 1 .209-2.687 4.853 4.853 0 0 1 .746-1.971 3.627 3.627 0 0 1 1.493-1.254 6.1 6.1 0 0 1 2.568-.448 6.4 6.4 0 0 1 2.628.448 3.564 3.564 0 0 1 1.494 1.221 4.992 4.992 0 0 1 .746 2 24.9 24.9 0 0 1 .181 2.72z"/><path data-name="Path 10570" d="M127.86 22.753a6.554 6.554 0 0 0-2.985-1.908 16.365 16.365 0 0 0-4.986-.627 13.973 13.973 0 0 0-4.419.6 7.133 7.133 0 0 0-2.807 1.642 5.7 5.7 0 0 0-1.463 2.478 10.477 10.477 0 0 0-.388 2.986v.448l4.9-.06v-.448a5.012 5.012 0 0 1 .209-1.553 2.342 2.342 0 0 1 .627-1.045 3.346 3.346 0 0 1 1.254-.687 7.236 7.236 0 0 1 2.15-.239 7.236 7.236 0 0 1 2.329.3 3.385 3.385 0 0 1 1.374.776 2.958 2.958 0 0 1 .717 1.224 6.237 6.237 0 0 1 .239 1.4l-5.823.567a14.607 14.607 0 0 0-6.45 1.821 5 5 0 0 0-2.18 4.449 5.968 5.968 0 0 0 .657 2.926 5.557 5.557 0 0 0 1.792 2.03 8.773 8.773 0 0 0 2.568 1.165 12.755 12.755 0 0 0 3.075.388 12.956 12.956 0 0 0 2.926-.3 14.569 14.569 0 0 0 2.359-.776 7.729 7.729 0 0 0 1.762-1.1c.209-.179.388-.358.567-.537l.717 2.448h3.016V29.445a20.425 20.425 0 0 0-.328-3.732 6.642 6.642 0 0 0-1.409-2.96zm-3.255 9.316v.119a5.029 5.029 0 0 1-1.374 3.762 5.437 5.437 0 0 1-3.941 1.344 5.581 5.581 0 0 1-3.075-.687 1.949 1.949 0 0 1-.926-1.732 1.413 1.413 0 0 1 .806-1.374 9.547 9.547 0 0 1 3.434-.836z"/><path data-name="Rectangle 89" d="M132.19 12.929h5.016v28.217h-5.016z"/><path data-name="Path 10571" d="M157.241 22.753a6.554 6.554 0 0 0-2.986-1.908 16.365 16.365 0 0 0-4.986-.627 13.973 13.973 0 0 0-4.419.6 7.133 7.133 0 0 0-2.807 1.642 5.7 5.7 0 0 0-1.463 2.478 10.477 10.477 0 0 0-.388 2.986v.448l4.9-.06v-.448a5.012 5.012 0 0 1 .209-1.553 2.342 2.342 0 0 1 .627-1.045 3.346 3.346 0 0 1 1.254-.687 7.236 7.236 0 0 1 2.15-.239 7.236 7.236 0 0 1 2.329.3 3.386 3.386 0 0 1 1.374.776 2.958 2.958 0 0 1 .717 1.224 6.237 6.237 0 0 1 .239 1.4l-5.823.567a14.607 14.607 0 0 0-6.45 1.821 5 5 0 0 0-2.18 4.449 5.968 5.968 0 0 0 .657 2.926 5.557 5.557 0 0 0 1.792 2.03 8.773 8.773 0 0 0 2.568 1.164 12.755 12.755 0 0 0 3.075.388 12.955 12.955 0 0 0 2.926-.3 14.569 14.569 0 0 0 2.359-.776 7.728 7.728 0 0 0 1.762-1.1c.209-.179.388-.358.567-.537l.717 2.448h3.016V29.445a20.424 20.424 0 0 0-.328-3.732 6.34 6.34 0 0 0-1.408-2.96zm-3.225 9.316v.119a5.029 5.029 0 0 1-1.374 3.762 5.437 5.437 0 0 1-3.941 1.344 5.58 5.58 0 0 1-3.075-.687 1.914 1.914 0 0 1-.956-1.732 1.413 1.413 0 0 1 .806-1.374 9.547 9.547 0 0 1 3.434-.836z"/><path data-name="Path 10572" d="M179.337 38.489a13.663 13.663 0 0 0-3.076-.866c-1.1-.179-2.18-.358-3.255-.478-2.18-.269-3.732-.508-4.6-.687-.627-.119-1.015-.328-1.015-.537a.629.629 0 0 1 .149-.328s.179-.179 1.075-.3c.388.06.776.09 1.164.149a7.363 7.363 0 0 0 1.165.09c.388 0 .746.03 1.1.03a18.047 18.047 0 0 0 4.628-.508 7.324 7.324 0 0 0 2.926-1.523 5.106 5.106 0 0 0 1.463-2.389 10.267 10.267 0 0 0 .388-2.956 6.333 6.333 0 0 0-.687-3.075 4.315 4.315 0 0 0-.955-1.194l2.21-.657v-2.806h-9.129a18.939 18.939 0 0 0-4.986.567 7.943 7.943 0 0 0-3.136 1.613 5.429 5.429 0 0 0-1.612 2.478 10.554 10.554 0 0 0-.418 2.956 7.089 7.089 0 0 0 .687 2.926 4.907 4.907 0 0 0 1.672 1.941 6.145 6.145 0 0 0-1.642.9 2.891 2.891 0 0 0-1.1 2.359 2.985 2.985 0 0 0 1.069 2.41 7.122 7.122 0 0 0 2.508 1.314 23.355 23.355 0 0 0 3.285.717c1.165.179 2.329.328 3.464.508q1.075.179 2.06.358a8.243 8.243 0 0 1 1.549.422 2.459 2.459 0 0 1 .926.567.907.907 0 0 1 .3.687 2.052 2.052 0 0 1-.149.717 1.47 1.47 0 0 1-.6.627 4.951 4.951 0 0 1-1.493.537 13.1 13.1 0 0 1-2.657.209 14.342 14.342 0 0 1-2.837-.239 3.442 3.442 0 0 1-1.523-.657 1.743 1.743 0 0 1-.657-.955 8.772 8.772 0 0 1-.269-1.433l-.03-.388h-5.161v.448a9.048 9.048 0 0 0 .478 3.105 5.059 5.059 0 0 0 1.732 2.389 8.493 8.493 0 0 0 3.225 1.433 21.185 21.185 0 0 0 4.986.478 17.359 17.359 0 0 0 4.9-.567 9.888 9.888 0 0 0 3.129-1.464 4.694 4.694 0 0 0 1.672-2.12 6.056 6.056 0 0 0 .478-2.359 4.151 4.151 0 0 0-.955-2.807 7.838 7.838 0 0 0-2.446-1.642zm-7.286-13.735a8.817 8.817 0 0 1 2.237.239 3.1 3.1 0 0 1 1.254.657 1.867 1.867 0 0 1 .567.955 4.753 4.753 0 0 1 .149 1.344 5.921 5.921 0 0 1-.179 1.523 2.389 2.389 0 0 1-.6 1.075 3.153 3.153 0 0 1-1.254.717 7.337 7.337 0 0 1-2.18.269 6.654 6.654 0 0 1-2.239-.3 2.831 2.831 0 0 1-1.224-.717 2.389 2.389 0 0 1-.6-1.075 5.921 5.921 0 0 1-.179-1.523 4.936 4.936 0 0 1 .179-1.374 2.007 2.007 0 0 1 .6-.955 3.1 3.1 0 0 1 1.254-.657 11.576 11.576 0 0 1 2.215-.178z"/><path data-name="Path 10573" d="M195.163 20.185h-1.1a9.125 9.125 0 0 0-4.628 1.075 6.38 6.38 0 0 0-1.379 1.045 2.6 2.6 0 0 0-.269.328l-.776-2.18h-2.926v20.663h5.016V29.71a11.465 11.465 0 0 1 .179-2.12 3.656 3.656 0 0 1 .657-1.553 3 3 0 0 1 1.314-.985 6.424 6.424 0 0 1 2.359-.358 2.568 2.568 0 0 1 .478.03 4.41 4.41 0 0 0 .627.03h.448v-4.569z"/><path data-name="Path 10574" d="M213.317 23.499a8.037 8.037 0 0 0-3.195-2.419 12.113 12.113 0 0 0-4.986-.9 12.21 12.21 0 0 0-4.986.9 8.037 8.037 0 0 0-3.195 2.419 8.75 8.75 0 0 0-1.612 3.4 16.64 16.64 0 0 0-.448 3.882 16.894 16.894 0 0 0 .448 3.912 8.605 8.605 0 0 0 1.642 3.4 8.38 8.38 0 0 0 3.165 2.389 12.113 12.113 0 0 0 4.986.9 12.113 12.113 0 0 0 4.986-.9 8.734 8.734 0 0 0 3.195-2.389 8.392 8.392 0 0 0 1.672-3.434 16.9 16.9 0 0 0 .448-3.912 16.456 16.456 0 0 0-.448-3.882 8.949 8.949 0 0 0-1.672-3.366zm-5.524 13.2a6.135 6.135 0 0 1-2.657.478 5.822 5.822 0 0 1-2.6-.508 3.878 3.878 0 0 1-1.523-1.314 4.924 4.924 0 0 1-.776-2 13.816 13.816 0 0 1-.239-2.538 13.568 13.568 0 0 1 .239-2.538 5.716 5.716 0 0 1 .776-2 4.1 4.1 0 0 1 1.523-1.314 5.962 5.962 0 0 1 2.628-.508 6.2 6.2 0 0 1 2.657.508 3.974 3.974 0 0 1 1.553 1.311 5.2 5.2 0 0 1 .776 2 15.012 15.012 0 0 1-.03 5.166 5.716 5.716 0 0 1-.776 2 4.36 4.36 0 0 1-1.551 1.255z"/><path data-name="Path 10575" d="M231.531 31.89a10.589 10.589 0 0 1-.209 2.3 3.652 3.652 0 0 1-.687 1.583 2.789 2.789 0 0 1-1.344.926 6.884 6.884 0 0 1-2.389.328 7.485 7.485 0 0 1-2.419-.328 2.956 2.956 0 0 1-1.284-.866 3.214 3.214 0 0 1-.6-1.493 12.834 12.834 0 0 1-.179-2.3V20.454h-4.923v11.317a22.151 22.151 0 0 0 .328 3.882 7.485 7.485 0 0 0 1.224 3.075 5.822 5.822 0 0 0 2.568 2 10.841 10.841 0 0 0 4.15.687 12.613 12.613 0 0 0 2.986-.3 9.057 9.057 0 0 0 2.21-.776 5.745 5.745 0 0 0 1.553-1.1c.119-.119.239-.269.358-.388l.687 2.269h3.046V20.454h-5.046V31.89z"/><path data-name="Path 10576" d="M259.301 26.873a9.834 9.834 0 0 0-1.433-3.434 7.636 7.636 0 0 0-2.747-2.389 9.145 9.145 0 0 0-4.27-.866 14.071 14.071 0 0 0-3.165.3 9.809 9.809 0 0 0-2.3.806 7.322 7.322 0 0 0-1.582 1.075 4.76 4.76 0 0 0-.388.388l-.687-2.3h-3.016v29.86a4.932 4.932 0 0 0 4.927-4.927v-5.942c.03.03.09.06.119.119a5.349 5.349 0 0 0 1.463.926 10.141 10.141 0 0 0 2.03.657 14.26 14.26 0 0 0 2.687.239 9.714 9.714 0 0 0 4.27-.866 7.289 7.289 0 0 0 2.747-2.359 9.726 9.726 0 0 0 1.4-3.374 19.065 19.065 0 0 0 .388-3.971 21.238 21.238 0 0 0-.443-3.942zm-4.6 3.971a14.4 14.4 0 0 1-.239 2.657 4.914 4.914 0 0 1-.776 1.941 3.8 3.8 0 0 1-1.493 1.224 7.844 7.844 0 0 1-5.225 0 3.6 3.6 0 0 1-1.493-1.224 4.86 4.86 0 0 1-.717-1.941 17.586 17.586 0 0 1-.175-2.626 15.084 15.084 0 0 1 .239-2.717 4.874 4.874 0 0 1 .776-1.971 3.8 3.8 0 0 1 1.493-1.224 6.556 6.556 0 0 1 2.657-.448 6.137 6.137 0 0 1 2.538.448 3.627 3.627 0 0 1 1.493 1.254 4.852 4.852 0 0 1 .746 1.971 17.72 17.72 0 0 1 .177 2.657z"/></g></g></svg>